<svg xmlns="http://www.w3.org/2000/svg" viewBox="0 0 1920 1080" width="1920" height="1080">
  <defs>
    <linearGradient id="bg2" x1="0%" y1="0%" x2="100%" y2="100%">
      <stop offset="0%" stop-color="#090c12"/>
      <stop offset="100%" stop-color="#121822"/>
    </linearGradient>
    <pattern id="grid2" width="40" height="40" patternUnits="userSpaceOnUse">
      <path d="M 40 0 L 0 0 0 40" fill="none" stroke="rgba(255,255,255,0.03)" stroke-width="1"/>
    </pattern>
  </defs>

  <rect width="1920" height="1080" fill="url(#bg2)"/>
  <rect width="1920" height="1080" fill="url(#grid2)"/>

  <!-- Window Frame -->
  <rect x="80" y="60" width="1760" height="960" rx="16" fill="#10141e" stroke="rgba(255,255,255,0.1)" stroke-width="1.5"/>
  <rect x="80" y="60" width="1760" height="54" rx="16" fill="#161c28"/>
  <circle cx="120" cy="87" r="7" fill="#ef4444"/>
  <circle cx="145" cy="87" r="7" fill="#f59e0b"/>
  <circle cx="170" cy="87" r="7" fill="#10b981"/>
  <text x="210" y="93" fill="#94a3b8" font-family="-apple-system, BlinkMacSystemFont, Segoe UI, sans-serif" font-size="16" font-weight="600">Voltrex Loader — Segmented Multi-Connection Chunk Matrix Visualizer</text>

  <!-- Chunk Matrix Blocks Mockup -->
  <rect x="140" y="160" width="1640" height="460" rx="12" fill="#141924" stroke="rgba(255,255,255,0.07)"/>
  <text x="180" y="210" fill="#ffffff" font-family="-apple-system, BlinkMacSystemFont, Segoe UI, sans-serif" font-size="22" font-weight="700">In-Place Thread Stream Map (32 Parallel HTTP Ranges)</text>

  <!-- Visual Grid of Blocks -->
  <g transform="translate(180, 240)">
    <!-- Row 1 -->
    <rect x="0" y="0" width="85" height="70" rx="4" fill="#10b981"/>
    <rect x="95" y="0" width="85" height="70" rx="4" fill="#10b981"/>
    <rect x="190" y="0" width="85" height="70" rx="4" fill="#10b981"/>
    <rect x="285" y="0" width="85" height="70" rx="4" fill="#10b981"/>
    <rect x="380" y="0" width="85" height="70" rx="4" fill="#10b981"/>
    <rect x="475" y="0" width="85" height="70" rx="4" fill="#10b981"/>
    <rect x="570" y="0" width="85" height="70" rx="4" fill="#10b981"/>
    <rect x="665" y="0" width="85" height="70" rx="4" fill="#10b981"/>
    <rect x="760" y="0" width="85" height="70" rx="4" fill="#10b981"/>
    <rect x="855" y="0" width="85" height="70" rx="4" fill="#10b981"/>
    <rect x="950" y="0" width="85" height="70" rx="4" fill="#10b981"/>
    <rect x="1045" y="0" width="85" height="70" rx="4" fill="#10b981"/>
    <rect x="1140" y="0" width="85" height="70" rx="4" fill="#10b981"/>
    <rect x="1235" y="0" width="85" height="70" rx="4" fill="#10b981"/>
    <rect x="1330" y="0" width="85" height="70" rx="4" fill="#10b981"/>
    <rect x="1425" y="0" width="85" height="70" rx="4" fill="#10b981"/>

    <!-- Row 2 -->
    <rect x="0" y="85" width="85" height="70" rx="4" fill="#10b981"/>
    <rect x="95" y="85" width="85" height="70" rx="4" fill="#10b981"/>
    <rect x="190" y="85" width="85" height="70" rx="4" fill="#e53935"/>
    <rect x="285" y="85" width="85" height="70" rx="4" fill="#e53935"/>
    <rect x="380" y="85" width="85" height="70" rx="4" fill="#e53935"/>
    <rect x="475" y="85" width="85" height="70" rx="4" fill="#e53935"/>
    <rect x="570" y="85" width="85" height="70" rx="4" fill="#e53935"/>
    <rect x="665" y="85" width="85" height="70" rx="4" fill="#e53935"/>
    <rect x="760" y="85" width="85" height="70" rx="4" fill="rgba(255,255,255,0.06)" stroke="rgba(255,255,255,0.15)"/>
    <rect x="855" y="85" width="85" height="70" rx="4" fill="rgba(255,255,255,0.06)" stroke="rgba(255,255,255,0.15)"/>
    <rect x="950" y="85" width="85" height="70" rx="4" fill="rgba(255,255,255,0.06)" stroke="rgba(255,255,255,0.15)"/>
    <rect x="1045" y="85" width="85" height="70" rx="4" fill="rgba(255,255,255,0.06)" stroke="rgba(255,255,255,0.15)"/>
    <rect x="1140" y="85" width="85" height="70" rx="4" fill="rgba(255,255,255,0.06)" stroke="rgba(255,255,255,0.15)"/>
    <rect x="1235" y="85" width="85" height="70" rx="4" fill="rgba(255,255,255,0.06)" stroke="rgba(255,255,255,0.15)"/>
    <rect x="1330" y="85" width="85" height="70" rx="4" fill="rgba(255,255,255,0.06)" stroke="rgba(255,255,255,0.15)"/>
    <rect x="1425" y="85" width="85" height="70" rx="4" fill="rgba(255,255,255,0.06)" stroke="rgba(255,255,255,0.15)"/>
  </g>

  <!-- Centered Placeholder Watermark -->
  <g transform="translate(960, 780)">
    <rect x="-280" y="-70" width="560" height="140" rx="12" fill="#090c13" stroke="rgba(255,255,255,0.15)" stroke-width="2"/>
    <text x="0" y="-20" fill="#f8fafc" font-family="-apple-system, BlinkMacSystemFont, Segoe UI, sans-serif" font-size="22" font-weight="700" text-anchor="middle">Live Visual Chunk Matrix</text>
    <text x="0" y="15" fill="#0284c7" font-family="JetBrains Mono, monospace" font-size="15" font-weight="600" text-anchor="middle">Placeholder Screenshot #2</text>
    <text x="0" y="42" fill="#64748b" font-family="-apple-system, BlinkMacSystemFont, Segoe UI, sans-serif" font-size="13" text-anchor="middle">Drop "screenshot-2.png" into web/assets/screenshots/</text>
  </g>
</svg>
